<svg height="300" viewBox="0 0 269 300" width="269" xmlns="http://www.w3.org/2000/svg"><g fill="none" fill-rule="evenodd"><path d="m82.7105 101.475449.1145128.323247.1666676.459193.104132.280539.2891789.755371.3003713.750946.1293618.313762.2132778.505542.2124198.489842.1288999.290979.1904783.421786.1463161.317654.1482468.31648.1375577.289022.304012.623731.1620062.32436.2448405.480218.2842115.543191.2900929.539584.2749661.498444.1674584.297654.1809863.316885.1829642.315436.3611024.608709.1808558.29826.4233789.681918.3687585.576313.3551161.540404.1957707.292079.3855055.563571.2907193.415252.2126232.298609.262542.362974.330169.447777.2273459.302886.166994.219737.3726992.482279.3167782.401375.5264408.650404.3635959.437652.3314071.391041.3499989.405041.2390273.272091.2757755.309479.3215289.354969.2642138.287093.5335925.567552.2915376.303345.603142.613169c2.9867409 2.989204 6.3181711 5.633262 9.9299841 7.867153l.553217.33763.43463.258975.418926.244479.329267.188667.483462.271532.492165.269817.579494.309298c.321511.169114.644919.335108.970184.497942l.430838.213304.432969.209602.275675.130997.458001.213454.50205.228052.522436.230814.498192.214009.555.2315.303289.123462.675469.26733.531508.203027.609053.22482c2.592421.939295 5.276613 1.687473 8.035736 2.227506l.592381.11253.449319.080816.513717.087633.553448.088751.567443.084937.585966.081308.614966.078376.409275.048234.544656.059342.604648.059424.240727.021775.627454.051736.51021.036736.578955.035915.73022.036585.549563.021148.364775.011017.550967.012085.578692.008003h.365292l.539826-.002616.663137-.010386.315396-.007721.488926-.015525.594944-.024732.420348-.021351.555802-.033177.242848-.016268.604076-.045157.357176-.029856.356524-.032149.52647-.051773.750788-.082745.600947-.07382.305218-.040089.304718-.041774.582757-.084785.410277-.063562.23999-.038668.62476-.105845.568014-.102759.565944-.10861.420943-.084837.435859-.09151.547618-.120298.480865-.11055.466521-.111678.571158-.142704.688935-.180963.329665-.090037.478725-.13475.41344-.120213.629436-.189909.651251-.205337.685485-.225965.518519-.177707.567532-.201279.346723-.126485.584457-.219315.354269-.136703.380763-.150126.461482-.186438.679516-.283576.487388-.210128.373537-.164899.553601-.250617.382817-.178058.400028-.189233.464836-.225361.462118-.229493.455179-.231443.422297-.219575.411975-.218769.806464-.441524.432958-.24442.735682-.427426.532216-.318904.52838-.324834.222825-.139495.598422-.38208.483529-.316826.560892-.376793.302397-.207365.386351-.269304.383994-.272602.318353-.229817.6527-.482184.358352-.271172.474631-.366364.565852-.44777.538466-.437533.312283-.258996.336913-.283836.43922-.377056.522514-.459222.489507-.441037.315056-.289566.560965-.526983.254264-.2438.482513-.471396.357345-.356693.578938-.592084.4878-.513038.451642-.487051.47878-.529491.437321-.495984.363354-.421425.482733-.573539.337349-.410432.188976-.233501.342013-.429347.299218-.382979.314337-.410001.283095-.376216.36728-.498326.294896-.408817.146376-.205904.306584-.437892.248295-.361428.358605-.533199.20625-.312907.332909-.515124.280807-.444588.165235-.266109.333376-.5475.262818-.442075.424499-.734738.248379-.442496.25518-.464911c2.273019-4.18933 4.015106-8.709491 5.136302-13.4695034.432913-1.8310089 2.071007-3.1105456 3.932449-3.2243188l.133327-.0061358.137205-.002122 17.414695-.000082 10.924846-25.8897253.084399-.2062712c.73858-1.8629162.904358-3.8845537.505346-5.8139839h22.952265c9.109072 0 16.930087 4.5156407 21.485254 12.405378 4.506083 7.8045564 4.55402 16.7279693.143811 24.5575523l-.143811.252185-109.231314 189.1941861c-4.555166 7.888476-12.376182 12.404553-21.485884 12.404553-9.016746 0-16.770971-4.424382-21.345423-12.164124l-.140462-.240429-109.23131307-189.1941861c-4.55453591-7.8897373-4.55453591-16.9212609 0-24.8097373 4.50806104-7.8092298 12.21689687-12.3126806 21.20742047-12.405378h.2784639 23.1937137l7.0521883 31.9095753 21.7450402.0004871.1340709.0020269c1.1224881.0339513 2.1735705.4926832 2.9407551 1.2436408l.1076436.1092533.1149902.1261332.1204654.1438725.1037867.1354794.1053337.1504432c.0461953.0692165.0903663.139957.1324158.2121608.0880592.1512075.1668143.3088323.2353724.4723173.0854137.2036793.155.4164548.2070322.6372492l.075974.3182953.0777773.3173858.1117663.4422862.0804121.308918.1462148.5435789c.0795976.2899239.1615097.5788544.2456971.8667086l.1098311.3706412.1123707.3695409.1963038.6240275.1227118.377296.1483465.442683z" fill="#002a64" fill-rule="nonzero"/><path d="m149.299755 283.564203 109.231313-189.1941855c3.250718-5.6313835 3.250718-11.8818914 0-17.5126445-3.251348-5.6313835-8.664588-8.7566374-15.166024-8.7566374h-218.4632577c-6.5020665 0-11.9153064 3.1252539-15.16665495 8.7566374-3.25071804 5.6307531-3.25071804 11.881261 0 17.5126445l109.23194365 189.1941855c3.250718 5.630123 8.663958 8.755377 15.166025 8.755377 6.502697 0 11.915306-3.125254 15.166655-8.755377" fill="#fff" fill-rule="nonzero"/><path d="m243.363783 74.6434486c4.163012 0 7.418774 1.8791433 9.500595 5.4848176 2.044027 3.5412872 2.081744 7.2297484.109567 10.7762919l-.109567.1933053-50.014466 86.6259806 3.281016-14.157561 2.244764-3.887474-1.333264-.044526 1.064-4.5905 3.002994-.100456 4.168056-7.220175-5.62655.657131 1.1715-5.0555 7.832493-1.449897 5.272645-9.13366-11.369638 3.097057 1.362-5.8775 14.507322-5.012202 7.253591-12.565324-19.701413 8.693526 1.684-7.2675 24.643052-12.901262 6.887916-11.9291769c1.025779-1.7791944 1.257163-3.4688616.690368-5.2070753l-29.611336 18.7785142 1.1591-5.0007393.012955-.1330658c.09522-1.1583618-.273909-2.2446191-.947722-3.0807143l21.110155-15.4539422h-17.283783l-15.130705 13.1306272 7.3295-17.369zm-192.2098548 0 2.8785 13.0235-10.1269291-8.7851272h-17.2945009l21.2140356 15.5227703c-.6338469.8198718-.9797312 1.8682015-.8945909 2.984966l.0151105.159986 1.1393748 5.0842393-29.7129492-18.8349038c-.5548161 1.7300175-.3215412 3.4102276.7004553 5.1799649l6.9112435 11.9707879 24.6102504 12.877651 1.623 7.2395-19.6120245-8.64948 7.2504378 12.558389 14.3480867 4.954091 1.317 5.876-11.1679238-3.039969 5.270753 9.129247 7.5761708 1.400722 1.136 5.068-5.3366191-.622347 4.168056 7.218284 2.6670631.088063 1.0335 4.613-.9680937.032527 1.5950937 2.763473 3.1059221 13.855327-49.1985289-85.2142466c-2.0811909-3.6056743-2.0811909-7.3632925 0-10.9695972 2.044646-3.5412872 5.220464-5.4168324 9.2777839-5.4848176z" fill="#caccd1"/><path d="m205.97551 38.1496882c2.239111.0026127 4.229018 1.455431 5.229551 3.4579845l8.342733 16.7029471c1.331564 2.6616405 1.431989 5.7718471.27524 8.5130839l-10.92497 25.8894845-17.414571.0003228-.137205.002122c-1.916081.0592913-3.622556 1.3558503-4.065776 3.2304546-3.938996 16.7229224-15.541431 30.4854424-30.906448 37.3424454l37.193351-88.1470081c.822-1.944902 2.354414-3.5026088 4.28853-4.3532477l4.054203-1.7864532c1.29437-.5698202 2.681726-.8521358 4.065362-.8521358z" fill="#feaa36"/><path d="m214.638116 56.7160904c.726206-1.7224576 3.106566-1.8308617 4.000578-.2243931l.049906.0945842.859194 1.7247103c1.298275 2.5950995 1.426199 5.6162635.359639 8.3064407l-.084399.2062712-10.924846 25.8897253h-9.45z" fill="#f17018"/><path d="m192.618955 75.625417c-1.216261-.5121686-1.781618-1.9106829-1.272053-3.1247124l1.339003-3.1693458c.513285-1.2132855 1.911799-1.7823618 3.124341-1.2701932 1.212541.5121687 1.781618 1.9110549 1.268333 3.1247124l-1.335284 3.1693459c-.513284 1.2140294-1.911798 1.7823618-3.12434 1.2701931" fill="#fb8f29"/><path d="m177.64295 18.8109018c1.870885-1.2519679 4.333162-1.5316707 6.289595-.4210421 1.136757.6447439 2.146022 1.5088411 2.966499 2.5552083l.161561.2116927 2.655689 3.5792296c1.22246 1.6481639 1.794979 3.6876829 1.603324 5.7261361l-.022557.2108546-9.408031 79.207521c-7.523023 13.549678-20.630743 23.561699-36.225045 26.902798l11.905077-100.2246567c.345131-2.9020037 1.910934-5.5151622 4.302292-7.1857984l.17221-.1177194z" fill="#fec24d"/><path d="m183.374627 22.6702061c.238045-1.9973462 2.78215-2.7018106 4.00585-1.1050495l.229618.3033038c.584286.7788241 1.250506 1.7148714 2.113638 2.8753407 1.218865 1.644209 1.784312 3.6839437 1.59555 5.7187199l-.022222.21046-9.408174 79.207778c-2.778771 5.004767-6.319464 9.526885-10.465957 13.408461z" fill="#f88727"/><path d="m167.033582 97.8615503c-.985655-.1171628-1.692351-1.0135509-1.577048-2.0018096l.308715-2.5801845c.115303-.9886305 1.011691-1.6945827 2.001066-1.577048.989374.1175347 1.69607 1.0135509 1.577048 2.0018096l-.304996 2.5809283c-.119022.9878867-1.01541 1.693467-2.004785 1.5763042" fill="#fda134"/><path d="m173.706688 53.0150551c-1.324125-.0517004-2.354413-1.1664204-2.30606-2.4898018l.137619-3.4564875c.048353-1.3237533 1.164189-2.3547857 2.488314-2.3030853 1.324126.0517004 2.354414 1.1660485 2.302342 2.4898018l-.133901 3.4564876c-.052072 1.3233813-1.167908 2.3547856-2.488314 2.3030852" fill="#fda134" transform="matrix(.9945219 .10452846 -.10452846 .9945219 6.062885 -17.906004)"/><path d="m137.133722 2.91793304.130762.13141508 3.113182 3.18943087c1.440413 1.47434738 2.278158 3.42907657 2.356799 5.48329531l.005053.1870107 2.078516 125.048421c-3.437351.679342-6.99147 1.035509-10.629737 1.035509-7.92295 0-15.446939-1.688934-22.235042-4.72614l-2.140193-128.89191386c-.037195-2.23018397 1.740332-4.06796565 3.970515-4.10516018l15.943742-.26491778.133966-.00613609c2.719234-.04149424 5.338901 1.01116332 7.272437 2.91918595z" fill="#feaa36"/><path d="m133.814319 5.04409072c-.033103-2.01110819 2.39384-3.05106723 3.818391-1.63358372l.407179.41018722c.652594.66508345 1.401787 1.45923169 2.345216 2.42440784 1.432589 1.46750415 2.266041 3.41536344 2.34866 5.45928474l.005753.2046982 2.078516 125.048421c-2.857697.564782-5.796101.906195-8.796468 1.005282z" fill="#f17018"/><path d="m120.595755 50.3898009c-1.324497.0223167-2.415784-1.0332641-2.438101-2.3581332l-.057279-3.4583473c-.021945-1.3241252 1.033635-2.4157847 2.358133-2.4377294 1.324125-.0219448 2.415784 1.0336359 2.438101 2.3581331l.05728 3.4583473c.021572 1.3244972-1.033636 2.4157847-2.358134 2.4377295" fill="#fb8f29"/><path d="m132.873505 31.099145 16.067293.6259839c2.716688.1058309 5.276913 1.3026366 7.100023 3.3146943l.123154.1384458 2.930929 3.3571782c1.353771 1.5523246 2.083852 3.5499923 2.050809 5.6056491l-.00511.1870269-3.442887 88.3482088c-7.115758 3.408037-15.087119 5.316683-23.509419 5.316683-3.237958 0-6.409282-.282086-9.490974-.823005l3.983243-102.1925914c.086663-2.2290682 1.963871-3.9653088 4.192939-3.8782736z" fill="#fec24d"/><path d="m152.608178 36.9784842c.078109-2.0103643 2.558984-2.9134474 3.905426-1.4189713l.252706.2841865c.643939.7301173 1.384291 1.6102184 2.336033 2.6988148 1.344706 1.5428166 2.070752 3.5312081 2.043746 5.5740972l-.005486.2115118-3.442887 88.3482088c-2.854051 1.366925-5.845744 2.49264-8.948969 3.350738z" fill="#f88727"/><path d="m144.410504 85.0957421c-1.324125-.0517004-2.354414-1.1664204-2.306061-2.4898017l.13762-3.4564876c.048353-1.3237533 1.164189-2.3547857 2.488314-2.3030853s2.354414 1.1660485 2.302341 2.4898018l-.1339 3.4564876c-.052072 1.3233813-1.167908 2.3547856-2.488314 2.3030852" fill="#fda134"/><path d="m134.546515 107.285443c-1.322638-.048353-2.354042-1.164189-2.302342-2.488314l.23321-5.9808804c.051701-1.3241253 1.166421-2.3544137 2.48943-2.3023414 1.324125.0483529 2.354414 1.1641888 2.302341 2.488314l-.230606 5.9808798c-.052072 1.324126-1.167908 2.354414-2.492033 2.302342" fill="#fda134"/><path d="m104.46199 26.026664.134618.1273404 3.21026 3.0923532c1.483733 1.4292216 2.382319 3.3570453 2.526056 5.40802l.010983.186781 4.721926 99.7038234c-16.8782011-6.324732-29.7750017-20.781526-33.9712385-38.5988944-.1399398-.5938236-.4068545-1.1296432-.767153-1.5865045l-3.1283235-66.0375096c-.1056324-2.2279523 1.6149865-4.119666 3.8433107-4.2249265l16.0613416-.7606282c2.7170521-.1291063 5.3686737.8423634 7.3582197 2.6901452z" fill="#fec24d"/><path d="m104.97748 26.503633c.770299.7197141 1.655901 1.6127548 2.835711 2.7490476 1.475222 1.4209302 2.368972 3.339222 2.517966 5.3772373l.01275.2112407 4.721956 99.7038344c-3.159541-1.183966-6.179563-2.652899-9.02911-4.375501l-4.826707-101.9158564c-.095218-2.0092485 2.297506-3.1228527 3.767434-1.7500026z" fill="#f88727"/><path d="m94.1151899 68.3988067c-1.3230094.0624868-2.4462842-.9592469-2.508771-2.2822563l-.1640279-3.4549998c-.0628588-1.3230094.9592469-2.4466562 2.2822563-2.509143 1.3230094-.0628587 2.4462842.958875 2.508771 2.2818844l.1640279 3.4553717c.0624868 1.3233814-.958875 2.4462842-2.2822563 2.509143" fill="#fda134"/><path d="m66.0269314 30.7110047c1.2853034.2322333 2.5248402.7132414 3.6450566 1.4292329l.2224305.1463273 3.691929 2.4983566c1.6992196 1.1501912 2.9111571 2.8867199 3.4073481 4.8729372l.0487675.2063477 18.0365259 81.5855166c-6.7608799-6.964284-11.6821367-15.728168-13.9843945-25.5036354-.4420063-1.8756187-2.1507656-3.1725664-4.0677951-3.2305497l-.1340709-.0020269-21.7450402-.0004871-7.9850782-36.1321084c-.6339064-2.8471389-.023563-5.8258098 1.6714151-8.191372l.1325196-.1807445 11.265107-15.0191509c1.3505333-1.8009591 3.5803454-2.8796004 5.7952796-2.4786434z" fill="#feaa36"/><path d="m70.3299664 32.5662678.3379087.2237491c.8057941.5389131 1.7389874 1.1968959 2.9259113 2.0001118 1.6963433 1.1480339 2.9050568 2.8851858 3.4000281 4.8680874l.0486486.2059903 18.2046926 81.7579846c-6.8474446-6.991822-11.8312578-15.819768-14.1525612-25.6761034-.169386-.7187761-.5248051-1.3525697-1.0066867-1.8642199l-13.1709113-59.1474242c-.4374077-1.9631273 1.7299175-3.4698776 3.4129699-2.3681757z" fill="#f17018"/><path d="m63.8322223 67.7294278c-1.3230094.0624868-2.4462842-.9592469-2.508771-2.2822563l-.1640279-3.4549998c-.0628587-1.3230094.9592469-2.4466561 2.2822563-2.5091429 1.3230094-.0628588 2.4462842.9588749 2.508771 2.2818843l.1640279 3.4553718c.0624868 1.3233813-.958875 2.4462842-2.2822563 2.5091429" fill="#fb8f29" transform="matrix(.98480775 -.17364818 .17364818 .98480775 -10.078315 12.016759)"/><g fill-rule="nonzero"><path d="m76.8927285 92.713511c1.9709381 0 3.7495805 1.3133389 4.201866 3.2325766 5.6751412 24.0968474 27.2643335 42.0469274 53.0937025 42.0469274 25.828625 0 47.41633-17.95008 53.092215-42.0469274.44322-1.8746043 2.149695-3.1711633 4.065776-3.2304546l.137205-.002122h25.627031c2.547761 0 4.542308 2.1805271 4.334959 4.7029669l-.012955.1330658-18.582616 80.1743003-59.217478 102.567575c-2.043351 3.541354-5.217126 5.416245-9.273096 5.485113h-.226238c-4.08794 0-7.300106-1.810502-9.384686-5.288893l-.114649-.194959-60.0334147-103.98057-17.6547969-78.7625663c-.2854808-2.5338709 1.6584207-4.7580854 4.1879665-4.8340292l.1336659-.0020035z" fill="#b31c31"/><path d="m76.6808483 92.713511c1.9709381 0 3.7495805 1.3133389 4.2018659 3.2325766 5.6751413 24.0968474 27.2643338 42.0469274 53.0937028 42.0469274 25.828625 0 47.416329-17.95008 53.092214-42.0469274.443221-1.8746043 2.149695-3.1711633 4.065777-3.2304546l.137205-.002122h6.092464c1.946424 0 3.469766 2.1763558 3.313303 4.6957264l-.010429.1403063-20.348912 119.2010953-36.685605 63.54078c-2.043351 3.541354-5.217126 5.416245-9.273096 5.485113h-.226238c-4.08794 0-7.300106-1.810502-9.384686-5.288893l-.114649-.194959-36.6001395-63.39388-20.7481153-119.3492563c-.2176488-2.5314461 1.2649131-4.7538282 3.1962403-4.8338053l.1077497-.0022274z" fill="#a21629"/><path d="m257.500254 166.941996v61.145535c0 4.884903-4.873555 8.206865-9.419895 6.420735-59.592294-23.404413-168.5675394-23.404413-228.1598336 0-4.5463398 1.78613-9.4205254-1.535832-9.4205254-6.420735v-61.145535c0-4.924623 4.0167426-8.941996 8.942627-8.941996h229.115631c4.924623 0 8.941996 4.017373 8.941996 8.941996z" fill="#002a64"/><path d="m34.75 170.1c8.8.05 12.1 5.25 12.1 10.1 0 1.85-.05 3.7-.05 5.55 0 .5-.4.95-.9 1l-5.8.45c-.6.05-1.1-.4-1.1-1 0-1.6 0-3.25.05-4.8 0-1.9-1-4.1-4.35-4-3.2.1-4.2 2.45-4.25 4.45v3c0 2.7.55 3.5 5.95 5.7 1.3.5 2.6 1.05 3.85 1.5 4.1 1.55 6.5 3.3 6.5 7.6v3.75c-.05 4.85-3.45 10.55-11.95 12.6l-.25.05c-8.75 2.1-12.05-2.85-12.05-8.45v-2.6c0-.5.35-.9.85-1l3-.55 2.7-.45c.6-.1 1.15.35 1.15 1v1.3c0 2 1 4.1 4.35 3.45 3.2-.6 4.25-3 4.25-4.95v-1.5c0-1.95-.5-2.3-5.75-4.25-.65-.2-1.35-.45-2.05-.75l-1.05-.45c-4.9-2-7.35-3.3-7.35-9.45v-5.9c0-5.6 3.4-11.5 12.15-11.4zm193.85.9c.5 0 .95.4 1 .9l.4 3.95c.35 3.2.65 6.45 1 9.75l.05.45c.25 2.15.65 3.55 2.4 3.7 1.9.2 2.2-1.4 2.45-3.8l.4-4.2.9-9.75c.05-.5.5-.9 1-.9 1.95 0 3.85 0 5.8.05.6 0 1.05.5 1 1.1l-.35 3.9c-.4 4.15-.75 8.3-1.15 12.4v.25c-.3 3.05-1.4 7.2-5.6 8.15-.25.05-.4.25-.4.5 0 5.85.05 11.7.05 17.55 0 .65-.6 1.1-1.25 1-1.95-.45-3.85-.9-5.85-1.3-.45-.1-.8-.5-.8-.95l-.05-5.4c-.05-4-.05-8-.05-12 0-.2-.1-.35-.3-.45-4.45-2-5.55-6.1-5.85-8.95v-.15c-.5-4.9-1.05-9.8-1.6-14.65-.05-.6.4-1.1 1-1.1 1.95-.1 3.9-.1 5.8-.05zm-34.75.85c0-.55.45-1 1-1 3.25 0 6.5.05 9.7.05h3.55c6.25 0 8.8 3.7 8.85 7.95 0 2.4.05 4.8.05 7.2v.25c-.05 2.4-.75 5.15-3.7 6.15-.35.15-.45.65-.15.85 1.65 1.2 2.3 3.85 2.9 7 .65 3.45 1.3 6.85 1.95 10.35.1.7-.45 1.3-1.15 1.15-1.9-.35-3.8-.7-5.75-1.05-.4-.05-.75-.4-.8-.8-.6-2.95-1.2-5.85-1.8-8.75l-.4-1.85c-.55-2.4-1.3-4.1-4.05-4.3-.3 0-.6-.05-.9-.1-.6-.05-1.1.4-1.1 1 .05 4.05.1 8.15.1 12.15 0 .6-.55 1.1-1.15 1-2-.3-3.95-.6-5.95-.85-.5-.05-.85-.5-.85-1-.1-11.75-.2-23.55-.35-35.4zm-129.3-1.800365c8.75.050365 12.15 4.550365 12.15 8.800365v.15c-.1 9.3-.15 18.6-.25 27.9 0 .5-.4.95-.9 1-2 .25-3.95.5-5.9.8-.6.1-1.15-.4-1.15-1 .1-9.25.15-18.5.25-27.75 0-1.7-1-3.6-4.25-3.55-3.2.05-4.25 2.05-4.3 3.75v.1c-.1 9.65-.15 19.4-.25 29.05 0 .5-.35.9-.85 1-1.95.35-3.9.65-5.9 1-.6.1-1.15-.35-1.15-1 .05-8.05.1-16.1.15-24.15l.05-6.35c0-4.7 3.45-9.8 12.3-9.750365zm29.95-.049635c8.2.05 9.05 4.5 9.35 7.3l.85 6.95c.8 6.6 1.55 13.15 2.35 19.65.05.55-.35 1.1-.95 1.1-1.9.1-3.8.25-5.7.35-.55.05-1-.35-1.1-.9-.25-2.1-.5-4.2-.75-6.3-.05-.55-.55-.9-1.05-.9-2.2.15-4.4.3-6.6.45-.5.05-.85.4-.95.9-.3 2.3-.6 4.65-.9 6.95-.05.45-.4.8-.9.85-1.9.2-3.8.4-5.65.6-.65.05-1.2-.5-1.1-1.15 1.05-8.4 2.1-16.75 3.15-25.05l.45-3.7c.45-2.9 1.7-7.1 9.5-7.1zm93.65.85c.55 0 1 .45 1 1 0 1.3.05 2.6.05 3.9 0 .55-.45 1-1 1-3-.05-6.05-.1-9.05-.15-.55 0-1 .45-1 1 .05 2.95.05 5.9.1 8.9 0 .55.45.95.95 1l8.25.45c.55.05.95.45.95 1 0 1.3.05 2.6.05 3.9 0 .6-.5 1.05-1.1 1-2.65-.2-5.3-.4-8-.55-.6-.05-1.05.45-1.05 1 .05 3.7.05 7.4.1 11.1 0 .6-.5 1.05-1.1 1-2-.25-4-.45-5.95-.6-.5-.05-.9-.45-.9-1-.1-10.95-.15-21.95-.25-32.95-.1-.6.35-1.05.9-1.05 5.7 0 11.35 0 17.05.05zm-39.7.15c.6 0 1.05.45 1.05 1 0 4.75.05 9.5.05 14.25 0 .3.2.5.5.5h.3c4.5.1 5.45-2.05 5.6-3.9.3-3.65.6-7.3.9-10.95.05-.5.5-.9 1-.9h5.95c.6 0 1.05.5 1 1.05l-.8 11.6c-.2 2.15-1 4.5-3.75 5.6-.4.15-.4.7-.05.9 2.4 1.25 3.15 3.6 3.45 5.65.6 4.15 1 6.95 1.2 8.45.1.65-.45 1.2-1.05 1.15-2-.15-4-.25-6-.35-.45-.05-.85-.4-.95-.85l-.7-4.5c-.1-.6-.2-1.15-.25-1.75l-.25-1.75c-.35-2.2-1.05-4.05-5.3-4.15h-.3c-.3 0-.5.2-.5.5 0 3.7.05 7.4.05 11.1 0 .55-.45 1-1.05 1-2-.05-4-.1-6-.15-.55 0-1-.45-1-1 0-10.5-.05-21.05-.05-31.5 0-.55.45-1 1-1zm-24.25-1c8.85 0 12.2 4.15 12.2 8.1v4.2c0 .55-.45 1-1 1-1.95.05-3.9.05-5.85.05-.55 0-1-.45-1-1v-3.6c0-1.5-1.05-3.2-4.4-3.2-3.25 0-4.3 1.75-4.3 3.25 0 5.85-.05 11.7-.05 17.5 0 1.45 1 3.15 4.15 3.1h.15c3.35-.05 4.4-1.75 4.45-3.15v-.95c0-.55.45-1 1-1 1.95 0 3.9-.05 5.85 0 .55 0 1 .45 1 1v1.45c0 3.9-3.35 7.95-12.05 8.2h-.25c-8.9.25-12.3-3.75-12.25-7.8.05-6.3.05-12.6.1-18.9 0-4 3.4-8.25 12.25-8.25zm-29.65 5.85h-.1c-1.35 0-1.7.9-2 3.15l-.65 5.3c-.3 2.25-.55 4.55-.85 6.8-.1.6.45 1.15 1.05 1.1 1.6-.1 3.2-.15 4.8-.25.55-.05 1-.55.95-1.1-.45-3.95-.9-7.95-1.35-11.95l-.05-.3c-.2-1.95-.55-2.75-1.8-2.75zm107.35 2.2c.05 3.3.05 6.55.1 9.85 0 .5.4.95.95 1 .45.05.9.05 1.35.1l.75.05c2.85.2 4.2-.65 4.2-3.8-.05-1.35-.1-2.75-.1-4.1v-1.65c0-1.35-.4-2.25-2.8-2.35-1.1-.05-2.25-.1-3.4-.1-.6 0-1.05.45-1.05 1z" fill="#fff"/></g></g></svg>